<?xml version="1.0" encoding="iso-8859-1"?>
<!-- Uploaded to: SVG Repo, www.svgrepo.com, Generator: SVG Repo Mixer Tools -->
<svg fill="#000000" height="800px" width="800px" version="1.1" id="Layer_1" xmlns="http://www.w3.org/2000/svg" xmlns:xlink="http://www.w3.org/1999/xlink" 
	 viewBox="0 0 512 512" xml:space="preserve">
<g>
	<g>
		<path d="M150.261,0c-27.62,0-50.087,22.467-50.087,50.087s22.467,50.087,50.087,50.087c27.619,0,50.087-22.468,50.087-50.087
			C200.348,22.468,177.88,0,150.261,0z M150.261,66.783c-9.22,0-16.696-7.475-16.696-16.696s7.475-16.696,16.696-16.696
			s16.696,7.475,16.696,16.696S159.481,66.783,150.261,66.783z"/>
	</g>
</g>
<g>
	<g>
		<circle cx="250.435" cy="83.478" r="16.696"/>
	</g>
</g>
<g>
	<g>
		<circle cx="294.957" cy="27.826" r="16.696"/>
	</g>
</g>
<g>
	<g>
		<path d="M441.525,166.957h20.388c9.22,0,16.696-7.475,16.696-16.696s-7.475-16.696-16.696-16.696H357.689l71.509-71.509
			c6.52-6.52,6.52-17.091,0-23.611c-6.52-6.52-17.091-6.52-23.611,0l-95.121,95.12H50.087c-9.22,0-16.696,7.475-16.696,16.696
			s7.475,16.696,16.696,16.696h20.388C47.183,202.1,33.391,244.067,33.391,289.391c0,45.963,13.945,88.663,37.816,124.129
			c-21.694,5.497-37.816,24.989-37.816,48.393c0,27.662,22.424,50.087,50.087,50.087c23.404,0,42.896-16.121,48.393-37.816
			C167.337,498.055,210.037,512,256,512c45.961,0,88.658-13.944,124.122-37.811c5.498,21.693,24.99,37.811,48.392,37.811
			c27.662,0,50.087-22.424,50.087-50.087c0-23.402-16.118-42.891-37.809-48.392c23.87-35.465,37.817-78.166,37.817-124.13
			C478.609,244.067,464.817,202.1,441.525,166.957z M261.831,445.108c-0.211,0.011-0.424,0.011-0.63,0.011
			c-8.934,0-16.343-7.076-16.673-16.076c-0.343-9.217,6.853-16.967,16.066-17.304c63.195-2.337,114.902-54.332,117.718-117.494
			c0.407-9.217,7.989-16.663,17.424-15.935c9.212,0.402,16.343,8.206,15.934,17.414
			C408.087,376.136,342.266,442.131,261.831,445.108z"/>
	</g>
</g>
</svg>